# xmcd
#
# Track frame offsets:
#	150
#	14027
#	26345
#	43240
#	56279
#	69036
#	77643
#	88298
#	99427
#	114021
#	132530
#	147097
#	160620
#	179009
#	198663
#	210485
#	229493
#	243335
#	258656
#	277165
#
# Disc length: 3939 seconds
#
# Revision: 3
# Processed by: cddbd v1.4PL0 Copyright (c) Steve Scherf et al.
# Submitted via: EasyCDDAExtractor 4.6.0.1
#
DISCID=1e0f6114
DTITLE=Bruno e Marrone - Acústico Ao Vivo - Pirata
DYEAR=1900
DGENRE=Country
TTITLE0=Vida Vazia
TTITLE1=Acorrentado em você
TTITLE2=Machuca demais
TTITLE3=Agarrada em mim
TTITLE4=Fruto especial
TTITLE5=Meu segredo
TTITLE6=Feriado nacional
TTITLE7=Goiás é  mais
TTITLE8=Preciso amar de novo
TTITLE9=Hello
TTITLE10=Favo de mel
TTITLE11=Tô machucando
TTITLE12=Não da pra viver sem voçê
TTITLE13=Faz de conta
TTITLE14=Esqueci
TTITLE15=Apenas um sorriso
TTITLE16=Te amo e não te quero
TTITLE17=Dormi na praça
TTITLE18=faixa 19
TTITLE19=Sem Você
EXTD=
EXTT0=
EXTT1=
EXTT2=
EXTT3=
EXTT4=
EXTT5=
EXTT6=
EXTT7=
EXTT8=
EXTT9=
EXTT10=
EXTT11=
EXTT12=
EXTT13=
EXTT14=
EXTT15=
EXTT16=
EXTT17=
EXTT18=
EXTT19=
PLAYORDER=
